<?xml version="1.0" standalone="no"?>
<!DOCTYPE svg PUBLIC "-//W3C//DTD SVG 20010904//EN"
 "http://www.w3.org/TR/2001/REC-SVG-20010904/DTD/svg10.dtd">
<svg version="1.0" xmlns="http://www.w3.org/2000/svg"
 width="300.000000pt" height="300.000000pt" viewBox="0 0 300.000000 300.000000"
 preserveAspectRatio="xMidYMid meet">
<metadata>
Created by potrace 1.10, written by Peter Selinger 2001-2011
</metadata>
<g transform="translate(0.000000,300.000000) scale(0.100000,-0.100000)"
fill="#000000" stroke="none">
<path d="M2009 2989 c-17 -6 -41 -37 -74 -94 l-49 -85 -943 0 -944 0 3 -132 3
-133 43 -3 42 -3 0 -810 0 -809 305 0 c168 0 305 -4 305 -8 0 -19 -29 -104
-40 -118 -10 -11 -16 -12 -27 -2 -16 13 -23 7 -71 -59 -15 -21 -22 -24 -38
-15 -18 10 -36 -11 -190 -221 -93 -127 -184 -251 -202 -274 -17 -24 -32 -47
-32 -51 0 -11 462 -174 470 -165 4 4 76 102 160 217 133 183 151 212 141 228
-10 16 -7 26 19 61 36 49 37 58 8 76 l-21 13 24 19 c13 10 28 19 33 19 6 0 25
10 43 23 49 32 101 116 120 192 l16 65 571 0 571 0 0 -140 c0 -77 -3 -140 -6
-140 -3 0 -14 9 -24 20 -22 24 -88 44 -118 34 -40 -12 -67 -45 -67 -82 0 -37
12 -51 100 -115 53 -39 101 -106 130 -184 28 -76 72 -128 134 -161 47 -25 60
-27 166 -27 136 0 184 18 250 92 59 67 70 117 70 307 0 142 -2 165 -20 193
-27 44 -63 53 -122 28 -14 -5 -18 -2 -18 14 0 12 -11 33 -26 47 -20 21 -32 25
-62 22 -20 -3 -44 -8 -53 -12 -12 -5 -18 -1 -22 13 -2 10 -19 27 -37 36 -31
16 -36 16 -67 1 l-33 -16 0 35 0 35 240 0 240 0 2 732 3 731 40 11 40 12 3
248 2 248 -27 -4 c-16 -3 -91 -24 -169 -47 l-141 -41 -287 0 c-158 0 -286 3
-284 8 2 4 12 23 22 43 28 55 16 106 -29 125 -39 16 -40 16 -76 3z m79 -31
c29 -29 11 -72 -128 -312 l-141 -243 -71 -34 c-110 -53 -137 -104 -97 -183 20
-40 20 -46 7 -65 -15 -21 -101 -81 -116 -81 -5 0 -6 28 -4 63 4 59 11 75 154
322 327 565 315 545 351 545 18 0 38 -5 45 -12z m887 -308 c-1 -121 -4 -222
-6 -223 -7 -5 -464 -137 -474 -137 -5 0 -25 53 -44 118 -19 64 -47 154 -62
200 -24 75 -25 84 -10 90 27 11 575 170 587 171 8 1 11 -62 9 -219z m-1105
135 c0 -2 -14 -27 -30 -53 -25 -42 -34 -48 -55 -44 -42 8 -72 -6 -136 -63
l-62 -55 -783 0 -784 0 0 103 c0 57 3 107 6 110 8 7 1844 10 1844 2z m700 -3
c-8 -3 -64 -20 -125 -37 -99 -28 -110 -33 -107 -52 3 -18 -6 -24 -52 -39 -47
-15 -56 -21 -56 -41 0 -19 -6 -23 -32 -24 -56 -2 -81 2 -151 23 -66 20 -67 21
-54 42 8 11 29 47 47 79 l32 57 256 -1 c142 0 250 -3 242 -7z m-827 -217 c-31
-53 -62 -95 -70 -95 -10 0 -13 -6 -9 -15 4 -12 -39 -107 -62 -135 -2 -3 -19
12 -38 32 -26 29 -34 46 -34 77 0 47 17 69 121 161 65 58 85 70 113 70 l35 0
-56 -95z m657 -81 c27 -87 47 -161 45 -165 -3 -3 -17 -9 -32 -12 -16 -3 -36
-9 -45 -12 -13 -5 -18 -2 -18 9 0 8 -20 81 -45 162 -25 81 -44 148 -42 150 6
6 82 32 85 29 2 -2 26 -74 52 -161z m-215 79 l61 4 34 -115 c26 -87 31 -117
22 -120 -7 -2 -33 -22 -58 -43 -62 -53 -134 -73 -231 -64 -72 7 -77 6 -168
-34 -104 -46 -131 -47 -165 -4 -23 29 -25 60 -9 97 11 24 44 43 177 102 50 23
73 52 32 41 -20 -5 -20 -5 -2 26 11 18 32 55 47 82 44 78 37 75 123 48 59 -19
91 -24 137 -20z m-660 -59 c-14 -20 -25 -51 -25 -68 l0 -31 -135 0 -136 0 -3
-160 c-2 -138 -7 -174 -30 -260 -16 -55 -30 -110 -33 -123 l-5 -22 278 2 278
3 23 68 c12 37 28 103 35 147 7 44 17 80 23 80 5 0 39 14 75 31 60 29 74 31
179 33 l113 1 -7 -69 c-4 -39 -18 -111 -31 -160 -14 -50 -28 -101 -31 -114
l-5 -22 278 2 278 3 23 74 c30 96 53 237 53 331 l0 76 75 22 c41 12 78 22 82
22 5 0 7 -319 5 -710 l-2 -710 -225 0 -225 0 0 65 0 64 108 3 107 3 22 66 c43
134 68 386 47 467 l-6 22 -277 0 -276 0 -1 -163 c-1 -163 -5 -189 -60 -374 -6
-23 -5 -23 78 -23 l83 0 0 -65 0 -65 -554 0 -553 0 51 56 c28 30 51 60 51 65
0 5 97 9 230 9 l230 0 11 27 c47 124 76 330 65 456 l-8 77 -276 0 -277 0 -1
-153 c0 -167 -8 -197 -50 -197 -18 0 -27 7 -34 28 -16 44 -25 56 -60 80 -47
31 -101 29 -167 -8 -29 -16 -56 -30 -60 -30 -5 0 -7 63 -5 140 l3 140 -279 0
-278 0 0 -132 c-1 -140 -18 -259 -54 -363 -11 -32 -20 -60 -20 -62 0 -1 24 -3
53 -3 51 0 53 -1 62 -32 6 -17 22 -40 37 -51 26 -20 27 -20 150 2 67 12 135
24 151 27 26 5 27 4 27 -35 l0 -41 -290 0 -290 0 0 779 c0 429 -3 786 -6 795
-6 15 61 16 715 16 l720 0 -24 -36z m18 -167 l45 -43 -131 1 c-95 0 -131 -3
-134 -12 -4 -10 25 -13 122 -13 l126 0 -30 -54 c-17 -29 -31 -60 -31 -67 0
-11 -21 -14 -97 -14 -68 0 -97 -4 -100 -12 -4 -10 20 -13 96 -13 l101 0 0 -55
c0 -33 4 -55 11 -55 26 0 149 86 160 112 10 24 15 26 43 21 17 -3 32 -6 33 -7
4 -3 -28 -151 -43 -201 l-17 -54 -254 -3 c-222 -3 -253 -1 -247 12 39 103 69
302 62 420 l-5 80 123 0 123 0 44 -43z m1137 -247 c-6 -36 -20 -100 -32 -142
l-20 -78 -253 0 -252 0 22 78 c13 42 28 120 34 172 10 80 15 97 34 110 12 8
38 30 58 48 38 34 59 41 59 20 1 -33 15 -37 69 -22 49 15 53 15 66 -2 12 -18
17 -17 117 11 l103 30 3 -80 c2 -44 -2 -109 -8 -145z m-1854 -517 c11 -76 -3
-226 -22 -238 -44 -26 -74 -59 -84 -90 -13 -40 -3 -36 -194 -70 -130 -23 -186
-42 -186 -65 0 -6 -18 -10 -40 -10 -22 0 -40 1 -40 3 0 1 12 47 26 102 21 80
27 132 31 258 l6 157 248 0 248 0 7 -47z m932 -48 c4 -109 -12 -243 -43 -344
l-22 -76 -217 -3 c-181 -2 -216 0 -216 12 0 14 21 26 47 26 8 0 29 10 46 23
30 21 40 22 170 18 121 -3 137 -1 137 13 0 14 -16 16 -122 16 l-121 0 22 24
22 24 -81 27 c-54 18 -92 25 -112 21 l-30 -6 8 43 c4 23 7 95 7 160 l0 117
251 -2 251 -3 3 -90z m929 -62 c-5 -150 -21 -245 -56 -335 -10 -28 -11 -28
-105 -28 -87 0 -97 2 -122 25 -18 16 -39 25 -61 25 -23 0 -42 -8 -59 -25 -22
-22 -34 -25 -96 -25 -63 0 -69 2 -63 18 40 106 70 303 63 422 l-5 80 255 0
255 0 -6 -157z m-1605 -100 c24 -23 45 -70 35 -79 -2 -3 -32 -9 -67 -16 -51
-9 -64 -8 -71 3 -8 12 -12 11 -23 -3 -8 -12 -43 -23 -97 -33 -46 -9 -92 -18
-101 -21 -24 -7 -24 24 0 52 9 12 66 47 126 78 121 63 148 66 198 19z m287
-154 c-24 -21 -58 -41 -75 -44 -26 -6 -36 -1 -66 29 -28 28 -44 36 -73 36 -48
0 -69 -12 -135 -75 l-55 -52 -272 -48 c-158 -27 -283 -45 -298 -41 -38 10 -52
52 -27 85 21 28 -5 23 622 132 30 5 111 20 180 33 l125 22 59 -19 59 -20 -44
-38z m-186 -11 c34 -18 46 -40 47 -81 0 -34 -8 -47 -75 -117 -41 -43 -75 -87
-75 -97 0 -50 -45 -148 -86 -190 -24 -24 -49 -43 -55 -43 -7 0 -27 -11 -45
-25 l-34 -26 -94 71 -95 71 25 46 c14 27 24 63 24 87 0 23 3 64 6 92 l6 51 97
17 c108 18 122 19 102 7 -7 -5 -10 -14 -6 -21 5 -8 35 15 94 73 103 101 119
109 164 85z m1211 -100 c13 -19 16 -61 16 -260 0 -152 4 -238 10 -238 6 0 10
39 10 96 0 116 15 153 64 154 11 0 28 -7 38 -17 15 -14 18 -32 18 -135 0 -98
3 -118 15 -118 12 0 15 17 15 93 0 104 13 130 66 130 48 0 59 -23 64 -143 6
-130 24 -152 28 -35 2 43 8 85 14 92 16 20 72 16 92 -6 16 -17 17 -40 14 -208
-3 -208 -6 -218 -73 -285 -51 -51 -108 -68 -224 -68 -76 0 -103 4 -138 21 -42
20 -113 92 -113 113 0 19 -59 135 -86 172 -15 20 -56 55 -90 80 -69 49 -78 63
-64 98 19 50 93 46 157 -9 23 -19 44 -35 47 -35 3 0 6 109 6 243 0 274 3 287
65 287 24 0 39 -7 49 -22z m-1637 -435 c70 -53 128 -99 128 -102 0 -3 -11 -22
-24 -42 l-25 -36 -135 100 c-75 56 -138 102 -139 103 -6 4 52 74 60 74 4 0 65
-44 135 -97z m-68 -103 c99 -75 158 -127 154 -134 -7 -11 -271 -375 -282 -388
-6 -7 -403 131 -416 144 -3 3 70 109 163 234 93 126 175 239 183 252 8 12 19
20 25 18 7 -3 84 -59 173 -126z"/>
<path d="M2843 2706 c20 -15 37 -30 37 -34 0 -4 10 -18 21 -32 18 -22 17 -19
-3 17 -20 36 -42 56 -83 71 -5 2 7 -8 28 -22z"/>
<path d="M2465 2655 c-14 -13 -25 -36 -25 -50 0 -28 40 -75 64 -75 54 0 95 55
77 103 -19 51 -77 62 -116 22z m83 -17 c28 -28 7 -78 -33 -78 -27 0 -45 18
-45 45 0 27 18 45 45 45 12 0 26 -5 33 -12z"/>
<path d="M395 2740 c-12 -5 58 -9 177 -9 178 -1 197 -3 201 -18 4 -14 5 -13 6
3 0 12 -6 25 -15 28 -24 9 -346 6 -369 -4z"/>
<path d="M380 2698 c0 -5 19 -8 43 -8 24 0 49 -6 56 -12 11 -10 12 -10 7 -1
-5 10 27 13 136 15 l143 3 -193 5 c-105 3 -192 2 -192 -2z"/>
<path d="M295 2399 c-4 -5 -4 -40 0 -77 11 -111 -25 -348 -70 -464 -7 -17 10
-18 273 -18 l280 0 21 63 c37 115 53 218 54 352 1 72 -2 136 -6 143 -11 16
-542 18 -552 1z m529 -35 c20 -52 -5 -307 -42 -429 l-18 -60 -250 -5 c-137 -3
-251 -4 -253 -3 -2 2 6 35 17 75 31 106 42 188 42 321 l0 117 249 0 c218 0
250 -2 255 -16z"/>
<path d="M387 2294 c-19 -19 21 -24 194 -24 148 0 190 3 187 13 -4 9 -52 13
-189 15 -102 1 -188 -1 -192 -4z"/>
<path d="M380 2125 c0 -13 20 -15 131 -15 100 0 130 3 127 13 -3 8 -41 13
-131 15 -109 2 -127 0 -127 -13z"/>
<path d="M350 1965 c0 -13 28 -15 190 -15 162 0 190 2 190 15 0 13 -28 15
-190 15 -162 0 -190 -2 -190 -15z"/>
<path d="M970 2355 c24 -27 45 -52 47 -54 2 -2 3 6 3 19 0 13 -3 20 -7 16 -4
-3 -25 11 -47 31 l-40 38 44 -50z"/>
<path d="M981 2137 c-32 -39 -33 -40 -5 -14 17 15 33 24 37 20 4 -3 7 3 7 15
0 12 -1 22 -2 22 -2 0 -18 -19 -37 -43z"/>
<path d="M975 1690 c16 -19 33 -39 37 -44 5 -6 8 1 8 14 0 13 -3 20 -7 17 -4
-4 -20 5 -37 20 l-31 28 30 -35z"/>
<path d="M1980 1666 c0 -17 4 -25 11 -20 6 3 27 -9 47 -27 30 -28 28 -24 -8
16 -25 27 -46 52 -47 54 -2 2 -3 -8 -3 -23z"/>
<path d="M1117 1613 l-28 -28 -20 24 c-11 14 -19 18 -19 10 0 -8 10 -20 21
-28 20 -12 25 -10 53 18 17 17 28 31 26 31 -3 0 -18 -12 -33 -27z"/>
<path d="M2020 1525 c-7 -9 -19 -14 -27 -11 -9 4 -13 -3 -13 -20 0 -27 0 -27
44 24 11 12 17 22 14 22 -3 0 -11 -7 -18 -15z"/>
<path d="M1929 1436 c-16 -20 -15 -23 2 -45 13 -16 19 -19 19 -8 0 8 -8 18
-17 22 -17 6 -17 7 1 20 10 8 16 18 15 23 -2 6 -11 0 -20 -12z"/>
<path d="M2032 1368 c-27 -28 -34 -31 -42 -18 -8 12 -10 9 -10 -13 0 -18 4
-26 11 -21 6 3 27 -9 47 -27 l37 -34 -34 38 -35 37 34 35 c19 19 32 35 29 35
-2 0 -19 -15 -37 -32z"/>
<path d="M1622 1025 c2 -3 73 -5 157 -6 147 0 152 -1 161 -22 8 -21 9 -20 9 6
l1 27 -167 0 c-91 0 -164 -2 -161 -5z"/>
<path d="M1980 1004 c0 -22 2 -25 15 -14 8 7 13 15 10 19 -2 4 17 8 43 10 69
3 65 11 -6 11 -60 0 -62 -1 -62 -26z"/>
<path d="M2614 1023 c7 -7 197 -5 205 2 2 3 -44 5 -104 5 -60 0 -105 -3 -101
-7z"/>
<path d="M1287 1974 c-4 -4 -7 -11 -7 -16 0 -12 190 -5 193 7 2 11 -175 20
-186 9z"/>
<path d="M2247 2134 c-19 -20 4 -24 124 -24 100 0 130 3 127 13 -5 13 -238 24
-251 11z"/>
<path d="M2214 1971 c-16 -17 16 -21 157 -21 124 0 160 3 156 13 -3 9 -43 12
-156 12 -84 0 -155 -2 -157 -4z"/>
<path d="M385 1530 c-11 -18 18 -21 200 -18 132 2 179 6 183 16 5 15 -373 18
-383 2z"/>
<path d="M380 1365 c0 -13 17 -15 128 -13 167 4 165 22 -3 26 -108 2 -125 0
-125 -13z"/>
<path d="M1417 1523 c-13 -12 -7 -51 8 -57 14 -5 45 17 45 33 0 21 -39 39 -53
24z"/>
<path d="M1611 1516 c-25 -30 16 -67 44 -40 11 12 12 20 5 35 -12 22 -33 25
-49 5z"/>
<path d="M1486 1443 c-22 -22 13 -73 51 -73 25 0 56 33 51 55 -5 24 -23 23
-26 -2 -4 -30 -52 -33 -52 -4 0 21 -13 34 -24 24z"/>
<path d="M1402 1413 c4 -22 43 -25 43 -3 0 8 -11 16 -23 18 -19 3 -23 0 -20
-15z"/>
<path d="M1624 1419 c-9 -15 12 -33 30 -26 9 4 16 13 16 22 0 17 -35 21 -46 4z"/>
<path d="M1645 1352 c11 -14 15 -26 10 -30 -6 -4 -21 -21 -35 -37 -23 -27 -22
-27 12 4 33 30 39 33 55 20 16 -13 17 -12 4 4 -11 14 -11 20 0 35 13 15 12 16
-4 3 -15 -12 -20 -11 -40 5 l-22 19 20 -23z"/>
<path d="M2252 1518 c4 -10 53 -14 191 -15 159 -2 187 0 187 12 0 13 -29 15
-191 15 -148 0 -190 -3 -187 -12z"/>
<path d="M2243 1358 c3 -10 37 -13 127 -13 90 0 124 3 128 13 3 9 -27 12 -128
12 -101 0 -131 -3 -127 -12z"/>
<path d="M2212 1198 c6 -16 378 -19 378 -3 0 6 -72 11 -191 13 -149 2 -190 0
-187 -10z"/>
<path d="M2418 529 c-30 -17 -20 -25 30 -23 62 3 61 2 32 19 -30 17 -39 18
-62 4z"/>
<path d="M2638 529 c-30 -17 -20 -24 32 -24 55 0 64 10 24 25 -31 12 -34 12
-56 -1z"/>
<path d="M2405 450 c-39 -43 -8 -114 49 -108 22 2 36 12 51 35 11 18 30 36 42
39 25 7 63 -11 63 -30 0 -21 34 -46 63 -46 34 0 67 32 67 65 0 54 -82 88 -112
47 -18 -24 -108 -24 -135 1 -26 23 -66 22 -88 -3z m79 -16 c9 -8 16 -22 16
-29 0 -7 -7 -21 -16 -29 -30 -30 -74 -13 -74 29 0 42 44 59 74 29z m226 -4
c15 -29 3 -59 -26 -66 -30 -8 -54 11 -54 40 0 46 59 64 80 26z"/>
<path d="M2433 414 c-8 -21 13 -42 28 -27 13 13 5 43 -11 43 -6 0 -13 -7 -17
-16z"/>
<path d="M2653 414 c-9 -23 13 -40 32 -24 12 10 13 16 4 26 -15 18 -28 18 -36
-2z"/>
<path d="M2397 309 c-9 -5 -22 -7 -28 -3 -6 3 0 -10 13 -30 13 -20 27 -36 32
-36 5 0 19 -8 30 -17 20 -17 20 -17 7 0 -12 15 -12 19 3 30 14 10 11 12 -21
12 -44 0 -57 25 -21 43 13 6 19 11 13 11 -5 0 -18 -4 -28 -10z"/>
<path d="M2518 300 c-40 -25 -3 -84 48 -78 33 4 74 52 57 69 -15 15 -85 21
-105 9z m80 -32 c8 -8 9 -15 1 -25 -19 -22 -79 -13 -79 12 0 24 57 34 78 13z"/>
<path d="M513 585 c-48 -20 -57 -65 -22 -109 24 -31 67 -35 97 -8 32 26 37 63
13 94 -26 32 -50 39 -88 23z m61 -31 c33 -32 13 -74 -35 -74 -27 0 -39 15 -39
49 0 38 46 54 74 25z"/>
<path d="M365 860 c-17 -19 -19 -19 -39 -3 -20 17 -21 17 -4 -2 17 -18 17 -20
-10 -50 l-27 -30 31 27 30 28 39 -40 39 -40 -60 -57 c-32 -32 -65 -67 -73 -78
-8 -11 19 13 61 54 50 48 80 71 89 66 8 -6 10 -4 4 4 -5 8 8 28 34 55 39 40
41 44 24 57 -16 12 -17 12 -6 -2 10 -13 6 -22 -28 -54 l-40 -38 -40 39 -39 38
22 23 c12 13 19 23 16 23 -3 0 -13 -9 -23 -20z"/>
<path d="M1478 859 l22 -25 -39 -38 -40 -39 -40 38 c-39 38 -40 39 -23 59 17
21 17 21 -4 4 -18 -16 -22 -16 -37 -3 -16 14 -16 14 -2 -2 14 -16 11 -21 -22
-55 l-37 -38 -40 37 c-22 21 -34 29 -26 18 8 -11 25 -29 38 -40 l23 -20 -41
-40 -41 -40 -20 28 c-12 15 -26 27 -32 27 -6 0 2 -14 18 -30 l29 -30 -37 -37
-37 -37 -32 29 -33 30 29 -33 30 -32 -39 -40 -39 -40 -25 22 -26 22 22 -24 23
-24 -33 -36 -32 -35 35 32 c34 31 37 32 54 15 17 -16 18 -16 5 5 -13 21 -11
26 23 60 l37 37 37 -37 c26 -26 35 -41 30 -54 -6 -14 -5 -16 5 -5 11 10 20 6
49 -20 l35 -33 -32 35 -33 36 38 37 38 37 37 -38 37 -38 -28 -29 c-15 -16 2
-2 38 30 36 33 68 64 72 69 3 6 25 -8 47 -30 36 -36 38 -42 26 -57 -14 -16
-13 -16 2 -2 15 13 20 12 43 -7 l25 -22 -22 24 -23 24 37 38 37 38 42 -41 42
-41 36 32 c20 18 36 38 36 44 0 6 -17 -6 -37 -27 l-37 -37 -38 37 -38 37 42
46 43 45 -40 -38 c-23 -20 -45 -37 -51 -37 -5 0 -25 16 -43 35 l-33 36 33 34
c19 19 38 35 43 35 6 0 24 -12 40 -27 l31 -28 -31 34 -32 33 37 38 36 38 25
-21 25 -22 -22 26 c-16 17 -20 29 -13 37 7 9 7 9 -2 2 -8 -7 -18 -4 -32 7 -20
17 -21 17 -4 -2 17 -18 17 -21 -19 -57 l-37 -38 -38 37 -38 37 23 25 22 26
-25 -22 -26 -23 -24 23 -24 22 22 -26z m-101 -146 l-37 -37 -40 39 -40 39 37
38 37 38 41 -40 40 -40 -38 -37z m161 0 l-42 -43 42 -43 42 -43 -38 -37 -38
-37 -39 40 -38 39 31 30 c18 16 32 33 32 37 0 4 -16 -7 -35 -26 l-35 -34 -38
37 -37 37 37 37 38 37 37 -34 38 -35 -34 38 -35 37 39 40 39 40 38 -37 38 -37
-42 -43z m-239 -8 l34 -36 -38 -39 -38 -39 -40 40 -39 41 33 34 c18 19 38 34
43 34 6 0 26 -16 45 -35z m-86 -83 l37 -38 -38 -37 -38 -37 -39 40 -39 40 34
35 c19 19 37 35 40 35 3 0 23 -17 43 -38z m165 2 l34 -36 -38 -39 -38 -39 -37
38 -37 37 36 38 c20 20 39 37 42 37 3 0 20 -16 38 -36z"/>
<path d="M1855 860 c-17 -19 -19 -19 -39 -3 -21 18 -21 18 -3 -3 9 -11 15 -24
12 -27 -3 -4 -2 -5 2 -2 4 3 23 -9 42 -27 l36 -33 -32 35 -33 36 22 22 c12 12
20 22 17 22 -3 0 -14 -9 -24 -20z"/>
<path d="M2138 860 l22 -24 -67 -71 -68 -70 70 68 71 67 24 -22 24 -23 -22 25
c-21 25 -21 27 -4 45 17 19 16 20 -3 3 -18 -17 -20 -17 -45 4 l-25 22 23 -24z"/>
<path d="M2798 860 c19 -23 20 -28 7 -43 -14 -16 -14 -16 2 -2 15 13 20 12 48
-13 l30 -27 -27 30 -28 31 23 24 22 24 -25 -22 -26 -22 -24 23 -24 22 22 -25z"/>
<path d="M1951 798 c-24 -26 -41 -48 -38 -48 12 0 98 88 90 92 -4 2 -28 -17
-52 -44z"/>
<path d="M1756 794 c-3 -9 -6 -24 -6 -35 0 -10 -6 -19 -14 -19 -8 0 -27 -5
-41 -10 -23 -9 -25 -13 -15 -25 7 -8 25 -15 41 -15 24 0 29 -4 29 -23 0 -13 6
-31 13 -41 11 -15 15 -15 24 -4 6 7 13 24 15 38 2 19 10 26 33 30 45 8 45 37
1 46 -26 4 -36 12 -36 24 0 28 -11 50 -25 50 -7 0 -16 -7 -19 -16z"/>
<path d="M197 793 c-4 -3 -7 -17 -7 -30 0 -14 -7 -26 -17 -29 -56 -17 -65 -24
-53 -39 6 -7 23 -15 38 -17 21 -2 28 -10 32 -33 5 -32 39 -49 41 -21 1 9 3 21
4 26 1 6 3 14 4 19 0 5 17 12 36 15 42 8 47 33 8 42 -50 10 -53 13 -53 44 0
28 -17 40 -33 23z m36 -84 c4 -3 0 -12 -9 -20 -16 -12 -17 -12 -11 3 4 12 2
15 -9 11 -7 -3 -14 -1 -14 5 0 12 23 22 30 13 3 -3 9 -8 13 -12z"/>
<path d="M1950 625 l-34 -35 -25 22 -26 22 22 -24 23 -24 -37 -38 -37 -38 -41
37 -40 38 37 -40 38 -41 -33 -34 -32 -35 35 33 c30 26 39 30 50 20 12 -11 12
-10 2 3 -9 13 -5 22 26 52 l38 37 39 -40 c21 -22 43 -40 48 -40 5 0 -12 19
-37 42 l-46 43 37 37 c20 21 35 38 32 38 -3 0 -20 -16 -39 -35z"/>
<path d="M175 505 c-30 -31 -55 -59 -55 -62 0 -4 27 19 60 52 33 33 60 61 60
62 0 10 -16 -3 -65 -52z"/>
<path d="M2040 455 l34 -35 -25 -27 -24 -28 28 25 28 24 39 -39 39 -40 -40
-34 -41 -33 -36 33 -37 34 38 -41 38 -41 -25 -17 c-15 -9 -26 -22 -26 -29 0
-6 12 1 27 16 l27 27 36 -33 35 -32 -33 36 -34 37 39 35 38 36 35 -32 c19 -18
28 -23 20 -12 -8 11 -23 26 -33 33 -9 7 -15 18 -12 23 4 5 1 9 -4 9 -6 0 -28
16 -48 35 l-37 34 20 23 19 23 -23 -19 -23 -20 -27 32 c-15 18 -32 32 -37 32
-5 0 6 -16 25 -35z"/>
<path d="M1008 368 c-25 -35 -48 -68 -52 -75 -4 -7 10 -35 30 -65 69 -98 69
-98 146 -98 43 0 68 4 68 11 0 6 -21 41 -46 77 l-45 65 45 66 c25 36 46 70 46
74 0 4 -33 7 -74 7 l-74 0 -44 -62z m152 37 c0 -3 -18 -30 -40 -59 -22 -29
-40 -56 -40 -61 0 -4 15 -28 33 -54 53 -74 53 -71 0 -71 -47 1 -49 1 -86 58
-21 31 -39 60 -40 64 -1 3 17 34 41 67 41 59 44 61 87 61 25 0 45 -2 45 -5z"/>
<path d="M1277 368 c-24 -35 -47 -68 -51 -75 -4 -7 16 -45 46 -88 l52 -75 67
0 c38 0 71 5 74 10 4 6 -15 40 -40 76 l-47 66 46 66 c25 37 46 71 46 75 0 4
-34 7 -74 7 l-75 0 -44 -62z m153 37 c0 -3 -18 -30 -40 -59 -22 -29 -40 -56
-40 -61 0 -4 15 -28 33 -54 53 -74 53 -71 0 -71 -47 1 -49 1 -86 58 -21 31
-39 60 -40 64 -1 4 16 35 38 68 39 59 41 59 88 60 26 0 47 -2 47 -5z"/>
<path d="M1541 360 c-28 -38 -51 -72 -51 -75 0 -3 23 -39 52 -80 l52 -75 67 0
c38 0 71 5 74 10 4 6 -14 39 -39 75 -25 35 -46 66 -46 69 0 3 20 34 45 69 25
36 45 68 45 71 0 3 -33 6 -74 6 l-74 0 -51 -70z m153 38 c-5 -7 -23 -34 -41
-59 -18 -26 -33 -50 -33 -55 0 -4 18 -34 41 -66 l40 -58 -48 0 c-52 0 -44 -7
-115 100 -18 26 -17 27 27 88 44 60 46 62 91 62 33 0 43 -3 38 -12z"/>
<path d="M1810 363 c-25 -36 -46 -70 -48 -74 -2 -5 20 -42 49 -84 l53 -75 67
0 c37 0 71 5 74 10 4 6 -14 39 -39 75 -25 35 -46 66 -46 69 0 3 20 34 45 69
25 36 45 68 45 71 0 3 -35 6 -77 6 l-78 -1 -45 -66z m154 35 c-5 -7 -23 -34
-41 -59 -18 -26 -33 -50 -33 -55 0 -4 18 -34 41 -66 l40 -58 -48 0 c-49 0 -49
0 -92 62 l-42 61 43 63 c43 63 43 64 91 64 36 0 46 -3 41 -12z"/>
<path d="M877 213 l-37 -38 -16 23 c-8 12 -20 22 -26 22 -6 0 -1 -11 12 -25
l24 -25 -35 -38 -34 -37 42 39 c40 37 41 38 52 17 6 -11 21 -26 34 -32 17 -9
14 -3 -10 22 l-33 33 37 38 c20 21 35 38 32 38 -2 0 -21 -17 -42 -37z"/>
<path d="M2259 200 c-41 -12 -79 -41 -79 -60 0 -112 522 -151 727 -54 47 23
55 60 18 90 -34 27 -74 39 -88 25 -6 -6 5 -17 32 -30 42 -22 46 -28 33 -47
-24 -35 -192 -65 -350 -63 -120 1 -257 21 -276 40 -6 5 -18 9 -29 9 -10 0 -15
5 -12 10 3 6 1 10 -4 10 -25 0 -8 22 34 42 63 31 60 48 -6 28z"/>
</g>
</svg>
